<svg id="Layer_1" data-name="Layer 1" xmlns="http://www.w3.org/2000/svg" viewBox="0 0 280 300"><defs><style>.cls-1{fill:#00953b;}.cls-2{fill:#fefefe;}</style></defs><title>Schneider Electric Logo</title><polygon class="cls-1" points="138.84 156.62 132.53 156.62 132.53 161.12 138.61 161.12 138.61 163.05 132.53 163.05 132.53 167.67 139.02 167.67 139.02 169.6 130.43 169.6 130.43 154.69 138.84 154.69 138.84 156.62 138.84 156.62"/><polygon class="cls-1" points="143.66 154.69 145.59 154.69 145.59 169.6 143.66 169.6 143.66 154.69 143.66 154.69"/><path class="cls-1" d="M153.07,165H160c0-3.62-1.69-5.38-4.27-5.38s-4.56,2-4.56,5c0,2.69,1.7,5.2,4.74,5.2a6.77,6.77,0,0,0,3.92-1.17v-1.87a6.29,6.29,0,0,1-3.45,1.17,3.05,3.05,0,0,1-3.28-2.92Zm2.69-3.74a2.25,2.25,0,0,1,2.28,2.45h-4.91a2.51,2.51,0,0,1,2.63-2.45Z"/><path class="cls-1" d="M172.22,162.35a4.52,4.52,0,0,0-2.69-1c-1.81,0-3,1.34-3,3.33a3,3,0,0,0,3.27,3.27,6.85,6.85,0,0,0,2.63-.64v1.87a8.7,8.7,0,0,1-2.92.58,4.74,4.74,0,0,1-5-4.91c0-3.21,1.87-5.26,4.79-5.26a6.48,6.48,0,0,1,2.87.65v2.1Z"/><path class="cls-1" d="M180.92,159.78H184v1.75h-3.1v5a1.36,1.36,0,0,0,1.41,1.46,4.43,4.43,0,0,0,2.22-.7v1.81a6.37,6.37,0,0,1-2.4.64,2.9,2.9,0,0,1-3.15-3.1v-5.14h-1.7v-.23l3.62-3.57v2.05Z"/><path class="cls-1" d="M191,159.78v2.28h0c1-1.76,1.92-2.46,2.86-2.46a3.47,3.47,0,0,1,2.34,1.11l-1.06,1.7a3,3,0,0,0-1.8-.94c-1.35,0-2.34,1.35-2.34,3v5.15h-1.93v-9.82Z"/><polygon class="cls-1" points="201.7 159.78 203.63 159.78 203.63 169.6 201.7 169.6 201.7 159.78 201.7 159.78"/><path class="cls-1" d="M216.17,162.35a4.5,4.5,0,0,0-2.69-1c-1.81,0-3,1.34-3,3.33a3,3,0,0,0,3.27,3.27,6.85,6.85,0,0,0,2.63-.64v1.87a8.7,8.7,0,0,1-2.92.58,4.74,4.74,0,0,1-5-4.91c0-3.21,1.87-5.26,4.8-5.26a6.47,6.47,0,0,1,2.86.65v2.1Z"/><path class="cls-1" d="M77.69,132.81c-3.69-1.64-5.9-2.21-8-2.21-2.3,0-3.77.82-3.77,2.05,0,3.85,13,2.78,13,11.64,0,4.84-4.1,7.7-9.76,7.7a16.84,16.84,0,0,1-9.18-2.45V144c3.61,2.46,5.82,3.28,8.69,3.28,2.46,0,3.77-.82,3.77-2.37,0-4.11-13-2.63-13-11.73,0-4.43,3.85-7.3,9.75-7.3a20.48,20.48,0,0,1,8.61,2v4.92Z"/><path class="cls-1" d="M95.89,150.85A18.42,18.42,0,0,1,90.07,152c-6.07,0-10-3.52-10-8.93,0-5.25,4.1-8.94,9.76-8.94a16.68,16.68,0,0,1,5.82,1.15v4a10.64,10.64,0,0,0-4.43-1.23c-3.28,0-5.33,2-5.33,5a4.84,4.84,0,0,0,5.17,5.08,13.21,13.21,0,0,0,4.83-1.23v3.94Z"/><path class="cls-1" d="M109.91,148.72v-6.89c0-2.54-1.06-3.77-2.78-3.77-1.24,0-2.3.82-3.61,2.62v11H98.11V126.25h5.41V137h.08a6.59,6.59,0,0,1,5.41-2.87c3.2,0,6.31,1.89,6.31,6.56v7a21.18,21.18,0,0,0-5.41,1.07Z"/><path class="cls-1" d="M117.86,147.32V134.45h5.42v2.46a7,7,0,0,1,5.65-2.79c2.71,0,6.23,1.56,6.23,6.56v11h-5.41v-10.5c0-2.46-1.15-3.44-2.7-3.44-1.32,0-2.3.74-3.77,2.87v7.54a33,33,0,0,0-5.42-.82Z"/><path class="cls-1" d="M146.4,134.12a8.73,8.73,0,0,0-9.11,9c0,5.33,3.94,8.85,10,8.85a12.39,12.39,0,0,0,7.7-2.29v-3.36c-2.54,1.8-4.26,2.46-6.39,2.46-3.36,0-5.49-1.81-5.66-4.84h12.3c.33-6.31-3.85-9.84-8.85-9.84Zm-3.37,7c.25-2.38,1.64-3.77,3.78-3.77a3.68,3.68,0,0,1,3.68,3.77Z"/><polygon class="cls-1" points="157.38 134.45 162.79 134.45 162.79 151.67 157.38 151.67 157.38 134.45 157.38 134.45"/><path class="cls-1" d="M177.8,126.25v8.94a10.32,10.32,0,0,0-4.43-1.07c-4.92,0-8.36,3.61-8.36,8.94,0,5.16,3.44,8.93,8,8.93a7,7,0,0,0,4.76-1.72v1.4h5.41V126.25Zm0,20.74a4.49,4.49,0,0,1-3.2,1.4c-2.54,0-4.18-2.13-4.18-5.25,0-3.44,1.64-5.41,4.34-5.41a5.61,5.61,0,0,1,3,1V147Z"/><path class="cls-1" d="M194.6,134.12a8.72,8.72,0,0,0-9.1,9c0,5.33,3.94,8.85,10,8.85a12.53,12.53,0,0,0,7.71-2.29v-3.36c-2.54,1.8-4.26,2.46-6.39,2.46-3.45,0-5.5-1.81-5.74-4.84h12.38c.24-6.31-3.86-9.84-8.86-9.84Zm-3.36,7c.25-2.38,1.56-3.77,3.69-3.77s3.52,1.48,3.77,3.77Z"/><path class="cls-1" d="M211.57,139.37h.08c1.56-3.61,3.37-5.25,5.5-5.25,1.06,0,2,.41,3.52,1.56l-1.47,4.76a5.83,5.83,0,0,0-3.2-1.24c-2,0-3.28,1.89-4.43,5v7.46h-5.41V134.45h5.41v4.92Z"/><path class="cls-1" d="M163,127.15c.49,1.4-.41,3.28-2,4.19s-3.36.65-3.86-.66.42-3.2,2.06-4.18,3.35-.66,3.85.65Z"/><path class="cls-1" d="M203.75,156.27a1.38,1.38,0,0,1-.76,1.46c-.59.35-1.17.24-1.35-.23a1.33,1.33,0,0,1,.7-1.46c.59-.35,1.17-.24,1.41.23Z"/><path class="cls-1" d="M105,155.06c5.64-5.86,13.66-7.7,17.87-4.09s3,11.32-2.6,17.17-13.66,7.69-17.86,4.09-3-11.32,2.59-17.17Z"/><path class="cls-1" d="M109,169h-5.66l.9-3.46,3.15,0a1.33,1.33,0,0,0,1.27-.84l1.39-6.12c.57-2.52,3.72-4.51,6.31-4.51h5.59l-.74,3.12-2.94,0c-.65,0-.88.16-1,.68l-1.76,6.65c-.67,2.53-3.87,4.42-6.49,4.42Z"/><path class="cls-2" d="M101.79,159.47a19.82,19.82,0,0,1,1.4-2.21h3.25l-.72,2.21Z"/><path class="cls-2" d="M100.21,163.68a15.83,15.83,0,0,1,.66-2.21h4.53l-.72,2.21Z"/><path class="cls-2" d="M123.78,163.33a17.5,17.5,0,0,1-1.33,2.21h-4.36l.72-2.21Z"/><path class="cls-2" d="M125.24,159.13a15.46,15.46,0,0,1-.6,2.21h-5.5l.71-2.21Z"/><path class="cls-2" d="M109,169h-5.66l.9-3.46,3.15,0a1.33,1.33,0,0,0,1.27-.84l1.39-6.12c.57-2.52,3.72-4.51,6.31-4.51h5.59l-.74,3.12-2.94,0c-.65,0-.88.16-1,.68l-1.76,6.65c-.67,2.53-3.87,4.42-6.49,4.42Z"/></svg>