<svg id="Layer_1" data-name="Layer 1" xmlns="http://www.w3.org/2000/svg" viewBox="0 0 280 300"><defs><style>.cls-1{fill:none;}.cls-2{fill:#086cb6;}.cls-3{fill:#12b24b;}.cls-4{fill:#8e979d;}</style></defs><title>KNX Logo</title><polygon class="cls-1" points="193.01 172.59 177.92 188.08 220.64 188.08 205.94 188 193.01 172.59"/><path class="cls-2" d="M140.19,111.94h3.3C141.89,111.9,140.76,111.92,140.19,111.94Z"/><path class="cls-2" d="M177.91,126.24a90.26,90.26,0,0,1,30,16.27h12.26s-12.88-14.2-37.66-22.91a129.86,129.86,0,0,0-39-7.66h-3.3l-.45,0v8.66S159.72,120.43,177.91,126.24Z"/><path class="cls-3" d="M101.41,126.38a131.53,131.53,0,0,1,38.3-5.76V112l-.74,0h-2.19a127.28,127.28,0,0,0-38.62,7.25c-23.28,7.33-38.8,23.32-38.8,23.32H71.63S81.78,132.6,101.41,126.38Z"/><path class="cls-3" d="M136.78,111.94h0Z"/><polygon class="cls-4" points="148.61 145.02 148.71 171.76 129.69 144.93 114.84 144.93 114.84 187.72 126.87 187.72 127.08 161.19 146.73 187.72 160.8 187.73 160.79 144.99 148.61 145.02"/><polygon class="cls-2" points="220.67 188.08 220.64 188.08 220.67 188.08 220.67 188.08"/><polygon class="cls-2" points="165.63 188.08 177.92 188.08 177.92 188.08 165.63 188.08 165.63 188.08"/><polygon class="cls-2" points="200.88 164.59 220.1 145.27 207.8 145.27 195.26 157.89 184.43 145.27 170.08 145.26 187.38 165.88 165.63 188.08 177.92 188.08 193.01 172.59 205.94 188 220.64 188.08 220.67 188.08 200.88 164.59"/><polygon class="cls-3" points="84.38 162.9 101.8 145.23 89.35 145.23 71.61 163.26 71.61 145.27 59.36 145.27 59.33 188.08 71.61 188.08 71.61 175.85 76.47 170.93 90.84 188.03 105.54 188.03 86.13 165.09 84.38 162.9"/></svg>